<?xml version="1.0" encoding="UTF-8" standalone="no"?>
<!-- Created with Inkscape (http://www.inkscape.org/) -->

<svg
   width="1023.9999"
   height="804.30206"
   viewBox="0 0 270.93329 212.80492"
   version="1.1"
   id="svg5"
   xml:space="preserve"
   inkscape:version="1.2.2 (b0a8486541, 2022-12-01)"
   sodipodi:docname="Autoconduit_.svg"
   xmlns:inkscape="http://www.inkscape.org/namespaces/inkscape"
   xmlns:sodipodi="http://sodipodi.sourceforge.net/DTD/sodipodi-0.dtd"
   xmlns:xlink="http://www.w3.org/1999/xlink"
   xmlns="http://www.w3.org/2000/svg"
   xmlns:svg="http://www.w3.org/2000/svg"><sodipodi:namedview
     id="namedview7"
     pagecolor="#292929"
     bordercolor="#000000"
     borderopacity="0.25"
     inkscape:showpageshadow="2"
     inkscape:pageopacity="0"
     inkscape:pagecheckerboard="0"
     inkscape:deskcolor="#666666"
     inkscape:document-units="px"
     showgrid="false"
     inkscape:zoom="0.7184354"
     inkscape:cx="543.54226"
     inkscape:cy="1471.2527"
     inkscape:window-width="1920"
     inkscape:window-height="1012"
     inkscape:window-x="1920"
     inkscape:window-y="0"
     inkscape:window-maximized="1"
     inkscape:current-layer="layer1" /><defs
     id="defs2"><linearGradient
       id="linearGradient6363"
       inkscape:collect="always"><stop
         style="stop-color:#7fbf7f;stop-opacity:1;"
         offset="0"
         id="stop6359" /><stop
         style="stop-color:#59a659;stop-opacity:0.80000001;"
         offset="1"
         id="stop6361" /></linearGradient><filter
       inkscape:collect="always"
       style="color-interpolation-filters:sRGB"
       id="filter3"
       x="-0.00010388436"
       y="-0.00017458323"
       width="1.0002078"
       height="1.0003492"><feGaussianBlur
         inkscape:collect="always"
         stdDeviation="0.003083326"
         id="feGaussianBlur3" /></filter><linearGradient
       inkscape:collect="always"
       xlink:href="#linearGradient6363"
       id="linearGradient10685"
       gradientUnits="userSpaceOnUse"
       gradientTransform="translate(-0.4572137,241.86797)"
       x1="50.032265"
       y1="76.523987"
       x2="121.27992"
       y2="128.63898" /></defs><g
     inkscape:label="Layer 1"
     inkscape:groupmode="layer"
     id="layer1"
     transform="translate(-563.47419,216.00699)"><g
       id="g10683"
       transform="matrix(3.440546,0,0,3.440546,392.88349,-1287.8065)"
       inkscape:export-filename="Autoconduit_1024_W.svg"
       inkscape:export-xdpi="96"
       inkscape:export-ydpi="96"><path
         id="path10665"
         style="fill:#484c51;fill-opacity:0.996078;fill-rule:nonzero;stroke:none;stroke-width:0.29048;stroke-dasharray:none;image-rendering:optimizeQuality"
         d="m 121.54006,311.52018 c 3.7614,0 6.78958,3.61771 6.78958,8.11139 v 34.56115 c 0,4.49366 -3.02818,8.11138 -6.78958,8.11138 h -1.806 c -1.42308,0.004 -1.42257,0.004 -1.41534,1.54931 l 0.23028,8.01046 c 0.0619,1.81314 -0.11599,1.83513 -1.32407,0.89142 l -10.39212,-7.99612 c -3.70793,-2.55754 -3.46621,-2.45507 -7.933395,-2.45507 H 63.681722 c -3.761395,0 -6.789579,-3.61772 -6.789579,-8.11138 v -34.56115 c 0,-4.49368 3.028184,-8.11139 6.789579,-8.11139 z"
         sodipodi:nodetypes="ssssccccccsssss" /><g
         id="g10681"><path
           id="path10667"
           style="display:inline;fill:#2a2f33;fill-opacity:1;stroke:none;stroke-width:0.265;stroke-dasharray:none;filter:url(#filter3)"
           d="m 64.290072,316.28268 c -3.75061,0 -6.77013,3.01951 -6.77013,6.77013 v 28.8463 c 0,3.75062 3.01952,6.77013 6.77013,6.77013 12.911823,0 35.618451,0 57.692618,0 3.75062,0 6.77013,-3.01951 6.77013,-6.77013 v -28.8463 c 0,-3.75062 -3.01951,-6.77013 -6.77013,-6.77013 z"
           sodipodi:nodetypes="sssccssss"
           transform="matrix(0.92839127,0,0,1.0857553,3.4911313,-27.122925)" /><g
           id="g10679"><path
             id="path10669"
             style="display:inline;fill:url(#linearGradient10685);fill-opacity:1;fill-rule:nonzero;stroke:none;stroke-width:0.265;stroke-dasharray:none;image-rendering:optimizeQuality"
             d="m 56.352579,318.39936 c -3.75062,0 -6.77013,3.01951 -6.77013,6.77013 v 28.8463 c 0,3.75062 3.01951,6.77013 6.77013,6.77013 h 1.80083 c 1.419004,0.003 1.418493,0.003 1.411291,1.29313 l -0.229608,6.68589 c -0.06166,1.51332 0.115634,1.53168 1.320256,0.74402 l 10.36236,-6.67393 c 3.697308,-2.13464 3.456278,-2.04911 7.910666,-2.04911 h 35.116806 c 3.75062,0 6.77013,-3.01951 6.77013,-6.77013 v -28.8463 c 0,-3.75062 -3.01951,-6.77013 -6.77013,-6.77013 z"
             sodipodi:nodetypes="ssssccccccsssss" /><g
             id="g10677"
             transform="translate(-0.50929616)"><circle
               style="fill:#ffffff;fill-opacity:1;stroke:none;stroke-width:0.273381;stroke-dasharray:none"
               id="circle10671"
               cx="85.708176"
               cy="340.2489"
               r="4.6302085" /><circle
               style="fill:#ffffff;fill-opacity:1;stroke:none;stroke-width:0.273381;stroke-dasharray:none"
               id="circle10673"
               cx="69.077354"
               cy="340.2489"
               r="4.6302085" /><circle
               style="fill:#ffffff;fill-opacity:1;stroke:none;stroke-width:0.273381;stroke-dasharray:none"
               id="circle10675"
               cx="102.339"
               cy="340.2489"
               r="4.6302085" /></g></g></g></g></g></svg>
